<svg version="1.1" viewBox="0 0 96 96" xmlns="http://www.w3.org/2000/svg" xmlns:xlink="http://www.w3.org/1999/xlink" id="Icons_CoveredPlate" overflow="hidden"><path d=" M 43 28 C 43 25.2 45.2 23 48 23 C 50.8 23 53 25.2 53 28 C 53 28.1 53 28.2 53 28.3 C 51.4 28.1 49.7 28 48 28 C 46.3 28 44.7 28.1 43 28.3 C 43 28.2 43 28.1 43 28 Z M 56.9 29.1 C 56.9 28.7 57 28.4 57 28 C 57 23 53 19 48 19 C 43 19 39 23 39 28 C 39 28.4 39 28.7 39.1 29.1 C 22.4 33.1 10 48.1 10 66 L 86 66 C 86 48.1 73.6 33.1 56.9 29.1 Z"/><path d=" M 8 70 L 8 72 C 8 74.2 9.8 76 12 76 L 84 76 C 86.2 76 88 74.2 88 72 L 88 70 L 8 70 Z"/></svg>